{
   "accessors" : [
      {
         "bufferView" : 0,
         "byteOffset" : 0,
         "componentType" : 5123,
         "count" : 344484,
         "max" : [ 65533 ],
         "min" : [ 0 ],
         "name" : "buffer-0-group-0-mesh-0-indices",
         "type" : "SCALAR"
      },
      {
         "bufferView" : 2,
         "byteOffset" : 0,
         "componentType" : 5126,
         "count" : 65534,
         "max" : [ 0.8344699740409851, 0.8344699740409851, 0.8344699740409851 ],
         "min" : [ -0.8544949889183044, -0.8445940017700195, -0.8544949889183044 ],
         "name" : "buffer-0-group-0-mesh-0-position",
         "type" : "VEC3"
      },
      {
         "bufferView" : 2,
         "byteOffset" : 786408,
         "componentType" : 5126,
         "count" : 65534,
         "max" : [ 1, 1, 1 ],
         "min" : [ -1, -1, -1 ],
         "name" : "buffer-0-group-0-mesh-0-normal",
         "type" : "VEC3"
      },
      {
         "bufferView" : 0,
         "byteOffset" : 688968,
         "componentType" : 5123,
         "count" : 367896,
         "max" : [ 65533 ],
         "min" : [ 0 ],
         "name" : "buffer-0-group-0-mesh-1-indices",
         "type" : "SCALAR"
      },
      {
         "bufferView" : 2,
         "byteOffset" : 1572816,
         "componentType" : 5126,
         "count" : 65534,
         "max" : [ 0.8544949889183044, 0.8445940017700195, 0.8544949889183044 ],
         "min" : [ -0.8251749873161316, -0.8544949889183044, -0.8544949889183044 ],
         "name" : "buffer-0-group-0-mesh-1-position",
         "type" : "VEC3"
      },
      {
         "bufferView" : 2,
         "byteOffset" : 2359224,
         "componentType" : 5126,
         "count" : 65534,
         "max" : [ 1, 1, 1 ],
         "min" : [ -1, -1, -1 ],
         "name" : "buffer-0-group-0-mesh-1-normal",
         "type" : "VEC3"
      },
      {
         "bufferView" : 0,
         "byteOffset" : 1424760,
         "componentType" : 5123,
         "count" : 361446,
         "max" : [ 65533 ],
         "min" : [ 0 ],
         "name" : "buffer-0-group-0-mesh-2-indices",
         "type" : "SCALAR"
      },
      {
         "bufferView" : 2,
         "byteOffset" : 3145632,
         "componentType" : 5126,
         "count" : 65534,
         "max" : [ 0.8445940017700195, 0.8544949889183044, 0.8445940017700195 ],
         "min" : [ -0.8445940017700195, -0.8544949889183044, -0.8445940017700195 ],
         "name" : "buffer-0-group-0-mesh-2-position",
         "type" : "VEC3"
      },
      {
         "bufferView" : 2,
         "byteOffset" : 3932040,
         "componentType" : 5126,
         "count" : 65534,
         "max" : [ 1, 1, 1 ],
         "min" : [ -1, -1, -1 ],
         "name" : "buffer-0-group-0-mesh-2-normal",
         "type" : "VEC3"
      },
      {
         "bufferView" : 0,
         "byteOffset" : 2147652,
         "componentType" : 5123,
         "count" : 253278,
         "max" : [ 47567 ],
         "min" : [ 0 ],
         "name" : "buffer-0-group-0-mesh-3-indices",
         "type" : "SCALAR"
      },
      {
         "bufferView" : 2,
         "byteOffset" : 4718448,
         "componentType" : 5126,
         "count" : 47568,
         "max" : [ 0.8445940017700195, 0.8445940017700195, 0.8445940017700195 ],
         "min" : [ -0.8445940017700195, -0.8445940017700195, -0.8445940017700195 ],
         "name" : "buffer-0-group-0-mesh-3-position",
         "type" : "VEC3"
      },
      {
         "bufferView" : 2,
         "byteOffset" : 5289264,
         "componentType" : 5126,
         "count" : 47568,
         "max" : [ 1, 1, 1 ],
         "min" : [ -1, -1, -1 ],
         "name" : "buffer-0-group-0-mesh-3-normal",
         "type" : "VEC3"
      }
   ],
   "asset" : {
      "generator" : "Obj2GltfConverter",
      "version" : "2.0"
   },
   "bufferViews" : [
      {
         "buffer" : 0,
         "byteLength" : 2654208,
         "byteOffset" : 0,
         "byteStride" : 0,
         "name" : "buffer-0-bufferview-ushort",
         "target" : 34963
      },
      {
         "buffer" : 0,
         "byteLength" : 1,
         "byteOffset" : 0,
         "name" : "buffer-0-bufferview-vec2"
      },
      {
         "buffer" : 0,
         "byteLength" : 5860080,
         "byteOffset" : 2654208,
         "byteStride" : 12,
         "name" : "buffer-0-bufferview-vec3",
         "target" : 34962
      },
      {
         "buffer" : 0,
         "byteLength" : 1,
         "byteOffset" : 0,
         "name" : "buffer-0-bufferview-vec4"
      }
   ],
   "buffers" : [
      {
         "byteLength" : 8514288,
         "name" : "buffer-0",
         "uri" : "src/components/objects/Ball/ball.bin"
      }
   ],
   "materials" : [
      {
         "alphaMode" : "OPAQUE",
         "doubleSided" : true,
         "name" : "Ball_Texture",
         "pbrMetallicRoughness" : {
            "baseColorFactor" : [ 1, 1, 1, 1 ],
            "metallicFactor" : 0,
            "roughnessFactor" : 0.7448017359246658
         }
      }
   ],
   "meshes" : [
      {
         "name" : "buffer-0-mesh-0",
         "primitives" : [
            {
               "attributes" : {
                  "NORMAL" : 2,
                  "POSITION" : 1
               },
               "indices" : 0,
               "material" : 0,
               "mode" : 4
            },
            {
               "attributes" : {
                  "NORMAL" : 5,
                  "POSITION" : 4
               },
               "indices" : 3,
               "material" : 0,
               "mode" : 4
            },
            {
               "attributes" : {
                  "NORMAL" : 8,
                  "POSITION" : 7
               },
               "indices" : 6,
               "material" : 0,
               "mode" : 4
            },
            {
               "attributes" : {
                  "NORMAL" : 11,
                  "POSITION" : 10
               },
               "indices" : 9,
               "material" : 0,
               "mode" : 4
            }
         ]
      }
   ],
   "nodes" : [
      {
         "mesh" : 0,
         "name" : "node-0"
      }
   ],
   "scenes" : [
      {
         "name" : "scene-0",
         "nodes" : [ 0 ]
      }
   ]
}
